HIERARCHY
ROOT joint_Root
{
	OFFSET 0.0 0.0 0.0
	CHANNELS 6 Xposition Yposition Zposition Zrotation Xrotation Yrotation 
	JOINT Hips
	{
		OFFSET -0.726466 93.3139 -2.00062
		CHANNELS 6 Xposition Yposition Zposition Zrotation Xrotation Yrotation 
		JOINT Spine
		{
			OFFSET 15.7357 0.0 0.0
			CHANNELS 6 Xposition Yposition Zposition Zrotation Xrotation Yrotation 
			JOINT Chest
			{
				OFFSET 8.98455 -0.406207 0.0
				CHANNELS 6 Xposition Yposition Zposition Zrotation Xrotation Yrotation 
				JOINT Neck
				{
					OFFSET 16.3773 0.0 0.0
					CHANNELS 6 Xposition Yposition Zposition Zrotation Xrotation Yrotation 
					JOINT Head
					{
						OFFSET 6.45672 0.0 0.0
						CHANNELS 6 Xposition Yposition Zposition Zrotation Xrotation Yrotation 
						End Site
						{
							OFFSET 0.0 0.0 0.0
						}
					}
				}
				JOINT Shoulder_L
				{
					OFFSET 12.9942 -0.242716 4.98039
					CHANNELS 6 Xposition Yposition Zposition Zrotation Xrotation Yrotation 
					JOINT UpperArm_L
					{
						OFFSET 5.34809 0.0 0.0
						CHANNELS 6 Xposition Yposition Zposition Zrotation Xrotation Yrotation 
						JOINT LowerArm_L
						{
							OFFSET 24.3286 1.87007e-05 0.0
							CHANNELS 6 Xposition Yposition Zposition Zrotation Xrotation Yrotation 
							JOINT Hand_L
							{
								OFFSET 22.2916 0.0 0.0
								CHANNELS 6 Xposition Yposition Zposition Zrotation Xrotation Yrotation 
								End Site
								{
									OFFSET 0.0 0.0 0.0
								}
							}
						}
					}
				}
				JOINT Shoulder_R
				{
					OFFSET 12.9945 -0.242716 -4.98039
					CHANNELS 6 Xposition Yposition Zposition Zrotation Xrotation Yrotation 
					JOINT UpperArm_R
					{
						OFFSET -5.34813 0.0 0.0
						CHANNELS 6 Xposition Yposition Zposition Zrotation Xrotation Yrotation 
						JOINT LowerArm_R
						{
							OFFSET -24.3289 0.000322201 0.0
							CHANNELS 6 Xposition Yposition Zposition Zrotation Xrotation Yrotation 
							JOINT Hand_R
							{
								OFFSET -22.2915 -0.000108084 0.0
								CHANNELS 6 Xposition Yposition Zposition Zrotation Xrotation Yrotation 
								End Site
								{
									OFFSET 0.0 0.0 0.0
								}
							}
						}
					}
				}
			}
		}
		JOINT UpperLeg_L
		{
			OFFSET -2.19248 -6.46944 0.0
			CHANNELS 6 Xposition Yposition Zposition Zrotation Xrotation Yrotation 
			JOINT LowerLeg_L
			{
				OFFSET 39.0811 0.0 -1.23785e-05
				CHANNELS 6 Xposition Yposition Zposition Zrotation Xrotation Yrotation 
				JOINT Foot_L
				{
					OFFSET 40.9854 0.0 -1.26872e-05
					CHANNELS 6 Xposition Yposition Zposition Zrotation Xrotation Yrotation 
					JOINT Toes_L
					{
						OFFSET 11.7543 0.0 0.0
						CHANNELS 6 Xposition Yposition Zposition Zrotation Xrotation Yrotation 
						End Site
						{
							OFFSET 0.0 0.0 0.0
						}
					}
				}
			}
		}
		JOINT UpperLeg_R
		{
			OFFSET -2.19251 6.46944 0.0
			CHANNELS 6 Xposition Yposition Zposition Zrotation Xrotation Yrotation 
			JOINT LowerLeg_R
			{
				OFFSET -39.0811 -0.00228153 -0.0401928
				CHANNELS 6 Xposition Yposition Zposition Zrotation Xrotation Yrotation 
				JOINT Foot_R
				{
					OFFSET -40.9854 0.0 0.0
					CHANNELS 6 Xposition Yposition Zposition Zrotation Xrotation Yrotation 
					JOINT Toes_R
					{
						OFFSET -11.7543 0.0 0.0
						CHANNELS 6 Xposition Yposition Zposition Zrotation Xrotation Yrotation 
						End Site
						{
							OFFSET 0.0 0.0 0.0
						}
					}
				}
			}
		}
	}
}
MOTION
Frames:	7
Frame Time:	0.0333333
0.000000 0.000000 0.000000 0.000000 0.000000 -0.000000 -0.600899 92.298500 -1.763200 87.995800 -0.958778 5.183970 15.735700 0.000005 -0.000001 82.651100 85.950600 -82.308600 8.984550 -0.406207 -0.000000 0.269620 -1.058020 0.686933 16.377300 -0.000001 -0.000001 2.517850 -2.644550 1.491710 6.456720 -0.000001 -0.000000 4.509390 -3.044800 -0.792881 12.994200 -0.242716 4.980390 -87.784400 -6.631130 -71.477000 5.348090 -0.000007 -0.000001 -73.710400 -37.227500 -70.000100 24.328600 0.000019 0.000005 2.066040 0.381474 -79.450700 22.291600 -0.000001 0.000005 45.614800 5.641100 -14.213500 12.994500 -0.242716 -4.980390 90.716100 -2.209820 -72.039100 -5.348130 -0.000001 -0.000004 -72.606500 -34.153900 -80.590400 -24.328900 0.000322 -0.000009 11.583900 3.294040 -74.319800 -22.291500 -0.000108 -0.000004 50.622400 5.364450 -1.838880 -2.192480 -6.469440 -0.000000 -175.459000 -7.232950 -2.312790 39.081100 -0.000007 -0.000012 -0.099694 0.230124 23.423200 40.985400 -0.000006 -0.000013 -0.184401 2.824130 -66.085400 11.754300 -0.000000 0.000003 -0.000035 -0.000418 -16.593900 -2.192510 6.469440 -0.000001 179.317000 15.573600 -178.909000 -39.081100 -0.002282 -0.040193 -0.019924 0.065155 19.635100 -40.985400 0.000008 0.000006 3.945340 6.673170 -65.948700 -11.754300 -0.000006 -0.000006 -0.005015 -0.061612 -19.080000
0.000000 0.000000 0.000000 0.000000 0.000000 -0.000000 -0.587953 92.315000 -1.786960 87.997300 -0.999182 5.022580 15.735700 0.000005 -0.000001 82.591100 85.985800 -82.260400 8.984550 -0.406207 -0.000000 0.198507 -1.056800 0.662726 16.377300 -0.000001 -0.000001 2.456390 -2.637300 1.516890 6.456720 -0.000001 -0.000000 4.222530 -3.019250 -0.823995 12.994200 -0.242716 4.980390 -87.691600 -6.929530 -71.524500 5.348090 -0.000007 -0.000001 -80.659400 -38.960000 -72.723000 24.328600 0.000019 0.000005 -7.259630 -1.689300 -76.983400 22.291600 -0.000001 0.000005 45.646400 5.573620 -9.936520 12.994500 -0.242716 -4.980390 90.844300 -2.603690 -72.026200 -5.348130 -0.000001 -0.000004 -80.146300 -34.856200 -83.661300 -24.328900 0.000322 -0.000009 1.365700 0.468581 -71.024000 -22.291500 -0.000108 -0.000004 51.305100 5.155110 3.791820 -2.192480 -6.469440 -0.000000 -175.494000 -7.259860 -2.438690 39.081100 -0.000007 -0.000012 -0.097864 0.226975 23.324000 40.985400 -0.000006 -0.000013 -0.182823 2.794980 -66.021300 11.754300 -0.000000 0.000003 -0.000036 -0.000420 -16.593900 -2.192510 6.469440 -0.000001 179.380000 15.553800 -179.061000 -39.081100 -0.002282 -0.040193 -0.015803 0.053854 19.551000 -40.985400 0.000008 0.000006 4.038270 6.681770 -65.897400 -11.754300 -0.000006 -0.000006 -0.005267 -0.064022 -19.178200
0.000000 0.000000 0.000000 0.000000 0.000000 -0.000000 -0.582405 92.333200 -1.803190 87.981600 -1.040700 4.880640 15.735700 0.000005 -0.000001 82.515400 86.036400 -82.194400 8.984550 -0.406207 -0.000000 0.096779 -1.053800 0.642596 16.377300 -0.000001 -0.000001 2.502100 -2.632090 1.501320 6.456720 -0.000001 -0.000000 4.207540 -3.018380 -0.745005 12.994200 -0.242716 4.980390 -87.637300 -7.076780 -71.483800 5.348090 -0.000007 -0.000001 -85.978700 -39.377600 -75.313300 24.328600 0.000019 0.000005 -12.562600 -3.101940 -76.351000 22.291600 -0.000001 0.000005 48.947900 5.508280 -6.885050 12.994500 -0.242716 -4.980390 90.925700 -2.855940 -72.032700 -5.348130 -0.000001 -0.000004 -85.589700 -34.840100 -86.061400 -24.328900 0.000322 -0.000009 -1.493840 -0.543384 -69.996100 -22.291500 -0.000108 -0.000004 52.868400 4.909910 9.164310 -2.192480 -6.469440 -0.000000 -175.506000 -7.291670 -2.542060 39.081100 -0.000007 -0.000012 -0.096776 0.225544 23.223100 40.985400 -0.000006 -0.000013 -0.184391 2.757630 -65.957500 11.754300 -0.000000 0.000003 -0.000035 -0.000418 -16.593900 -2.192510 6.469440 -0.000001 179.447000 15.604600 -179.178000 -39.081100 -0.002282 -0.040193 -0.011481 0.041923 19.448400 -40.985400 0.000008 0.000006 4.213060 6.716340 -65.853000 -11.754300 -0.000006 -0.000006 -0.005161 -0.063012 -19.137000
0.000000 0.000000 0.000000 0.000000 0.000000 -0.000000 -0.569559 92.327300 -1.783640 87.963900 -1.052460 4.910890 15.735700 0.000005 -0.000001 82.599300 86.051900 -82.276400 8.984550 -0.406207 -0.000000 0.067527 -1.038520 0.646091 16.377300 -0.000001 -0.000001 2.636640 -2.660730 1.506390 6.456720 -0.000001 -0.000000 4.283930 -3.068380 -0.814487 12.994200 -0.242716 4.980390 -87.655700 -7.042450 -71.535700 5.348090 -0.000007 -0.000001 -87.192700 -39.031700 -75.872300 24.328600 0.000019 0.000005 -10.982100 -2.558940 -77.047100 22.291600 -0.000001 0.000005 51.739100 5.525750 -7.594400 12.994500 -0.242716 -4.980390 90.925300 -2.855540 -72.036600 -5.348130 -0.000001 -0.000004 -85.980300 -34.568100 -86.121900 -24.328900 0.000322 -0.000009 1.308120 0.456630 -70.749700 -22.291500 -0.000108 -0.000004 54.678200 4.921490 8.953040 -2.192480 -6.469440 -0.000000 -175.479000 -7.319290 -2.511590 39.081100 -0.000007 -0.000012 -0.097245 0.226189 23.264400 40.985400 -0.000006 -0.000013 -0.167789 2.819110 -65.998300 11.754300 -0.000000 0.000003 -0.000038 -0.000440 -16.594700 -2.192510 6.469440 -0.000001 179.432000 15.619800 -179.135000 -39.081100 -0.002282 -0.040193 -0.013216 0.046817 19.456100 -40.985400 0.000008 0.000006 4.159480 6.768040 -65.862300 -11.754300 -0.000006 -0.000006 -0.005144 -0.062856 -19.130700
0.000000 0.000000 0.000000 0.000000 0.000000 -0.000000 -0.545804 92.304000 -1.715680 87.998800 -1.059700 5.113190 15.735700 0.000005 -0.000001 82.815800 86.010200 -82.502500 8.984550 -0.406207 -0.000000 0.153983 -1.018470 0.627629 16.377300 -0.000001 -0.000001 2.657770 -2.686930 1.457310 6.456720 -0.000001 -0.000000 4.573130 -3.118930 -0.845715 12.994200 -0.242716 4.980390 -87.714800 -6.877870 -71.570700 5.348090 -0.000007 -0.000001 -83.430900 -38.179900 -74.183800 24.328600 0.000019 0.000005 -5.548240 -1.104320 -78.794000 22.291600 -0.000001 0.000005 52.676700 5.569590 -9.669210 12.994500 -0.242716 -4.980390 90.834000 -2.576590 -72.056000 -5.348130 -0.000001 -0.000004 -81.106800 -34.276300 -84.088900 -24.328900 0.000322 -0.000009 6.024440 1.833730 -73.122600 -22.291500 -0.000108 -0.000004 55.836800 5.057780 6.065150 -2.192480 -6.469440 -0.000000 -175.511000 -7.319550 -2.308510 39.081100 -0.000007 -0.000012 -0.096391 0.223109 23.366000 40.985400 -0.000006 -0.000013 -0.154832 2.759710 -66.100800 11.754300 -0.000000 0.000003 -0.000034 -0.000407 -16.593400 -2.192510 6.469440 -0.000001 179.276000 15.599700 -178.921000 -39.081100 -0.002282 -0.040193 -0.019919 0.065389 19.566600 -40.985400 0.000008 0.000006 3.897160 6.811300 -65.930100 -11.754300 -0.000006 -0.000006 -0.005233 -0.063702 -19.165200
0.000000 0.000000 0.000000 0.000000 0.000000 -0.000000 -0.532987 92.279000 -1.654590 87.989800 -1.054390 5.309820 15.735700 0.000005 -0.000001 82.897400 85.989200 -82.564400 8.984550 -0.406207 -0.000000 0.197089 -1.013550 0.667251 16.377300 -0.000001 -0.000001 2.832990 -2.646250 1.423580 6.456720 -0.000001 -0.000000 4.776660 -3.123960 -0.986641 12.994200 -0.242716 4.980390 -87.756900 -6.694200 -71.426500 5.348090 -0.000007 -0.000001 -76.589600 -36.458200 -71.561500 24.328600 0.000019 0.000005 0.041193 0.005068 -81.253200 22.291600 -0.000001 0.000005 51.700600 5.598280 -11.259600 12.994500 -0.242716 -4.980390 90.750400 -2.301180 -71.933700 -5.348130 -0.000001 -0.000004 -72.768900 -33.540600 -81.075800 -24.328900 0.000322 -0.000009 10.468400 2.574500 -76.332800 -22.291500 -0.000108 -0.000004 55.412700 5.147530 3.989530 -2.192480 -6.469440 -0.000000 -175.468000 -7.262160 -2.120810 39.081100 -0.000007 -0.000012 -0.100397 0.230906 23.499300 40.985400 -0.000006 -0.000013 -0.152250 2.782750 -66.225500 11.754300 -0.000000 0.000003 -0.000041 -0.000479 -16.596200 -2.192510 6.469440 -0.000001 179.208000 15.537100 -178.720000 -39.081100 -0.002282 -0.040193 -0.021856 0.070382 19.684200 -40.985400 0.000008 0.000006 3.809440 6.756870 -66.027000 -11.754300 -0.000006 -0.000006 -0.005127 -0.062693 -19.124000
0.000000 0.000000 0.000000 0.000000 0.000000 -0.000000 -0.511183 92.266000 -1.599600 88.017000 -1.017770 5.449090 15.735700 0.000005 -0.000001 82.781600 86.010300 -82.440600 8.984550 -0.406207 -0.000000 0.153409 -1.025010 0.682777 16.377300 -0.000001 -0.000001 2.985190 -2.605100 1.355630 6.456720 -0.000001 -0.000000 5.208370 -3.091250 -1.007570 12.994200 -0.242716 4.980390 -87.747100 -6.633000 -71.191900 5.348090 -0.000007 -0.000001 -68.188900 -34.078000 -68.894000 24.328600 0.000019 0.000005 4.730610 0.518159 -83.747600 22.291600 -0.000001 0.000005 49.160900 5.619650 -12.637400 12.994500 -0.242716 -4.980390 90.692200 -2.110310 -71.834500 -5.348130 -0.000001 -0.000004 -62.568600 -32.543500 -77.766400 -24.328900 0.000322 -0.000009 13.682300 2.560650 -79.598900 -22.291500 -0.000108 -0.000004 52.614800 5.230900 1.890310 -2.192480 -6.469440 -0.000000 -175.499000 -7.245800 -1.964900 39.081100 -0.000007 -0.000012 -0.099758 0.228975 23.541500 40.985400 -0.000006 -0.000013 -0.127596 2.788310 -66.288400 11.754300 -0.000000 0.000003 -0.000036 -0.000424 -16.594100 -2.192510 6.469440 -0.000001 179.124000 15.567500 -178.587000 -39.081100 -0.002282 -0.040193 -0.019737 0.064080 19.791100 -40.985400 0.000008 0.000006 3.892220 6.714400 -66.130100 -11.754300 -0.000006 -0.000006 -0.005305 -0.064385 -19.193000
